<?xml version="1.0" encoding="UTF-8" standalone="no"?>
<!DOCTYPE svg PUBLIC "-//W3C//DTD SVG 1.1//EN"
 "http://www.w3.org/Graphics/SVG/1.1/DTD/svg11.dtd">
<!-- Generated by graphviz version 2.38.0 (20140413.2041)
 -->
<!-- Title: controllers_diagram Pages: 1 -->
<svg width="476pt" height="325pt"
 viewBox="0.00 0.00 475.87 325.39" xmlns="http://www.w3.org/2000/svg" xmlns:xlink="http://www.w3.org/1999/xlink">
<g id="graph0" class="graph" transform="scale(1 1) rotate(0) translate(134.186 165.005)">
<title>controllers_diagram</title>
<polygon fill="none" stroke="none" points="-134.186,160.386 -134.186,-165.005 341.688,-165.005 341.688,160.386 -134.186,160.386"/>
<!-- _diagram_info -->
<g id="node1" class="node"><title>_diagram_info</title>
<text text-anchor="start" x="138.312" y="70.9" font-family="Times,serif" font-size="13.00">Controllers diagram</text>
<text text-anchor="start" x="138.312" y="83.9" font-family="Times,serif" font-size="13.00">Date: Jan 02 2016 &#45; 11:13</text>
<text text-anchor="start" x="138.312" y="96.9" font-family="Times,serif" font-size="13.00">Migration version: 20151230160704</text>
<text text-anchor="start" x="138.312" y="109.9" font-family="Times,serif" font-size="13.00">Generated by RailRoady 1.4.2</text>
<text text-anchor="start" x="138.312" y="122.9" font-family="Times,serif" font-size="13.00">http://railroady.prestonlee.com</text>
</g>
<!-- ApplicationController -->
<g id="node2" class="node"><title>ApplicationController</title>
<path fill="none" stroke="black" d="M-118.186,27.4955C-118.186,27.4955 -2.54456,27.4955 -2.54456,27.4955 3.45544,27.4955 9.45544,21.4955 9.45544,15.4955 9.45544,15.4955 9.45544,-148.505 9.45544,-148.505 9.45544,-154.505 3.45544,-160.505 -2.54456,-160.505 -2.54456,-160.505 -118.186,-160.505 -118.186,-160.505 -124.186,-160.505 -130.186,-154.505 -130.186,-148.505 -130.186,-148.505 -130.186,15.4955 -130.186,15.4955 -130.186,21.4955 -124.186,27.4955 -118.186,27.4955"/>
<text text-anchor="middle" x="-60.3654" y="-145.305" font-family="Times,serif" font-size="14.00">ApplicationController</text>
<polyline fill="none" stroke="black" points="-130.186,-138.505 9.45544,-138.505 "/>
<text text-anchor="start" x="-122.186" y="-123.305" font-family="Times,serif" font-size="14.00">authorize!</text>
<text text-anchor="start" x="-122.186" y="-109.305" font-family="Times,serif" font-size="14.00">authorized?</text>
<text text-anchor="start" x="-122.186" y="-95.3045" font-family="Times,serif" font-size="14.00">current_permission</text>
<text text-anchor="start" x="-122.186" y="-81.3045" font-family="Times,serif" font-size="14.00">current_user</text>
<text text-anchor="start" x="-122.186" y="-67.3045" font-family="Times,serif" font-size="14.00">danger</text>
<text text-anchor="start" x="-122.186" y="-53.3045" font-family="Times,serif" font-size="14.00">info</text>
<text text-anchor="start" x="-122.186" y="-39.3045" font-family="Times,serif" font-size="14.00">success</text>
<text text-anchor="start" x="-122.186" y="-25.3045" font-family="Times,serif" font-size="14.00">warning</text>
<polyline fill="none" stroke="black" points="-130.186,-18.5045 9.45544,-18.5045 "/>
<polyline fill="none" stroke="black" points="-130.186,5.49548 9.45544,5.49548 "/>
<text text-anchor="start" x="-122.186" y="20.6955" font-family="Times,serif" font-size="14.00">_layout</text>
</g>
<!-- PagesController -->
<g id="node3" class="node"><title>PagesController</title>
<path fill="none" stroke="black" d="M42.6511,-37.9983C42.6511,-37.9983 124.858,-37.9983 124.858,-37.9983 130.858,-37.9983 136.858,-43.9983 136.858,-49.9983 136.858,-49.9983 136.858,-115.998 136.858,-115.998 136.858,-121.998 130.858,-127.998 124.858,-127.998 124.858,-127.998 42.6511,-127.998 42.6511,-127.998 36.6511,-127.998 30.6511,-121.998 30.6511,-115.998 30.6511,-115.998 30.6511,-49.9983 30.6511,-49.9983 30.6511,-43.9983 36.6511,-37.9983 42.6511,-37.9983"/>
<text text-anchor="middle" x="83.7546" y="-112.798" font-family="Times,serif" font-size="14.00">PagesController</text>
<polyline fill="none" stroke="black" points="30.6511,-105.998 136.858,-105.998 "/>
<text text-anchor="start" x="38.6511" y="-90.7983" font-family="Times,serif" font-size="14.00">home</text>
<polyline fill="none" stroke="black" points="30.6511,-83.9983 136.858,-83.9983 "/>
<polyline fill="none" stroke="black" points="30.6511,-59.9983 136.858,-59.9983 "/>
<text text-anchor="start" x="38.6511" y="-44.7983" font-family="Times,serif" font-size="14.00">_layout</text>
</g>
<!-- ApplicationController&#45;&gt;PagesController -->
<g id="edge1" class="edge"><title>ApplicationController&#45;&gt;PagesController</title>
<path fill="none" stroke="black" d="M9.58375,-74.5098C16.6121,-75.3142 23.6673,-76.1216 30.4815,-76.9015"/>
</g>
<!-- SessionsController -->
<g id="node4" class="node"><title>SessionsController</title>
<path fill="none" stroke="black" d="M-27.4328,155.886C-27.4328,155.886 70.3465,155.886 70.3465,155.886 76.3465,155.886 82.3465,149.886 82.3465,143.886 82.3465,143.886 82.3465,49.8864 82.3465,49.8864 82.3465,43.8864 76.3465,37.8864 70.3465,37.8864 70.3465,37.8864 -27.4328,37.8864 -27.4328,37.8864 -33.4328,37.8864 -39.4328,43.8864 -39.4328,49.8864 -39.4328,49.8864 -39.4328,143.886 -39.4328,143.886 -39.4328,149.886 -33.4328,155.886 -27.4328,155.886"/>
<text text-anchor="middle" x="21.4569" y="53.0864" font-family="Times,serif" font-size="14.00">SessionsController</text>
<polyline fill="none" stroke="black" points="-39.4328,59.8864 82.3465,59.8864 "/>
<text text-anchor="start" x="-31.4328" y="75.0864" font-family="Times,serif" font-size="14.00">create</text>
<text text-anchor="start" x="-31.4328" y="89.0864" font-family="Times,serif" font-size="14.00">destroy</text>
<text text-anchor="start" x="-31.4328" y="103.086" font-family="Times,serif" font-size="14.00">new</text>
<polyline fill="none" stroke="black" points="-39.4328,109.886 82.3465,109.886 "/>
<polyline fill="none" stroke="black" points="-39.4328,133.886 82.3465,133.886 "/>
<text text-anchor="start" x="-31.4328" y="149.086" font-family="Times,serif" font-size="14.00">_layout</text>
</g>
<!-- ApplicationController&#45;&gt;SessionsController -->
<g id="edge2" class="edge"><title>ApplicationController&#45;&gt;SessionsController</title>
<path fill="none" stroke="black" d="M-13.2431,27.594C-11.5379,30.999 -9.84752,34.3746 -8.18405,37.6964"/>
</g>
</g>
</svg>
