<?xml version="1.0" encoding="UTF-8" standalone="no"?>
<!DOCTYPE svg PUBLIC "-//W3C//DTD SVG 1.1//EN"
 "http://www.w3.org/Graphics/SVG/1.1/DTD/svg11.dtd">
<!-- Generated by graphviz version 2.38.0 (20140413.2041)
 -->
<!-- Title: models_diagram Pages: 1 -->
<svg width="496pt" height="506pt"
 viewBox="0.00 0.00 495.55 506.00" xmlns="http://www.w3.org/2000/svg" xmlns:xlink="http://www.w3.org/1999/xlink">
<g id="graph0" class="graph" transform="scale(1 1) rotate(0) translate(4 502)">
<title>models_diagram</title>
<polygon fill="none" stroke="none" points="-4,4 -4,-502 491.55,-502 491.55,4 -4,4"/>
<!-- _diagram_info -->
<g id="node1" class="node"><title>_diagram_info</title>
<text text-anchor="start" x="8" y="-483.6" font-family="Times,serif" font-size="13.00">Models diagram</text>
<text text-anchor="start" x="8" y="-470.6" font-family="Times,serif" font-size="13.00">Date: Jan 02 2016 &#45; 11:13</text>
<text text-anchor="start" x="8" y="-457.6" font-family="Times,serif" font-size="13.00">Migration version: 20151230160704</text>
<text text-anchor="start" x="8" y="-444.6" font-family="Times,serif" font-size="13.00">Generated by RailRoady 1.4.2</text>
<text text-anchor="start" x="8" y="-431.6" font-family="Times,serif" font-size="13.00">http://railroady.prestonlee.com</text>
</g>
<!-- Role -->
<g id="node2" class="node"><title>Role</title>
<path fill="none" stroke="black" d="M194.825,-302.5C194.825,-302.5 418.55,-302.5 418.55,-302.5 424.55,-302.5 430.55,-308.5 430.55,-314.5 430.55,-314.5 430.55,-376.5 430.55,-376.5 430.55,-382.5 424.55,-388.5 418.55,-388.5 418.55,-388.5 194.825,-388.5 194.825,-388.5 188.825,-388.5 182.825,-382.5 182.825,-376.5 182.825,-376.5 182.825,-314.5 182.825,-314.5 182.825,-308.5 188.825,-302.5 194.825,-302.5"/>
<text text-anchor="middle" x="306.688" y="-373.3" font-family="Times,serif" font-size="14.00">Role</text>
<polyline fill="none" stroke="black" points="182.825,-366.5 430.55,-366.5 "/>
<text text-anchor="start" x="190.825" y="-351.3" font-family="Times,serif" font-size="14.00">id :integer</text>
<text text-anchor="start" x="190.825" y="-337.3" font-family="Times,serif" font-size="14.00">name :character varying</text>
<text text-anchor="start" x="190.825" y="-323.3" font-family="Times,serif" font-size="14.00">created_at :timestamp without time zone</text>
<text text-anchor="start" x="190.825" y="-309.3" font-family="Times,serif" font-size="14.00">updated_at :timestamp without time zone</text>
</g>
<!-- User -->
<g id="node3" class="node"><title>User</title>
<path fill="none" stroke="black" d="M99.8254,-137.5C99.8254,-137.5 323.55,-137.5 323.55,-137.5 329.55,-137.5 335.55,-143.5 335.55,-149.5 335.55,-149.5 335.55,-253.5 335.55,-253.5 335.55,-259.5 329.55,-265.5 323.55,-265.5 323.55,-265.5 99.8254,-265.5 99.8254,-265.5 93.8254,-265.5 87.8254,-259.5 87.8254,-253.5 87.8254,-253.5 87.8254,-149.5 87.8254,-149.5 87.8254,-143.5 93.8254,-137.5 99.8254,-137.5"/>
<text text-anchor="middle" x="211.688" y="-250.3" font-family="Times,serif" font-size="14.00">User</text>
<polyline fill="none" stroke="black" points="87.8254,-243.5 335.55,-243.5 "/>
<text text-anchor="start" x="95.8254" y="-228.3" font-family="Times,serif" font-size="14.00">id :integer</text>
<text text-anchor="start" x="95.8254" y="-214.3" font-family="Times,serif" font-size="14.00">username :character varying</text>
<text text-anchor="start" x="95.8254" y="-200.3" font-family="Times,serif" font-size="14.00">first_name :character varying</text>
<text text-anchor="start" x="95.8254" y="-186.3" font-family="Times,serif" font-size="14.00">last_name :character varying</text>
<text text-anchor="start" x="95.8254" y="-172.3" font-family="Times,serif" font-size="14.00">password_digest :character varying</text>
<text text-anchor="start" x="95.8254" y="-158.3" font-family="Times,serif" font-size="14.00">created_at :timestamp without time zone</text>
<text text-anchor="start" x="95.8254" y="-144.3" font-family="Times,serif" font-size="14.00">updated_at :timestamp without time zone</text>
</g>
<!-- Role&#45;&gt;User -->
<g id="edge2" class="edge"><title>Role&#45;&gt;User</title>
<path fill="none" stroke="#ace43f" d="M272.71,-293.712C268.423,-287.304 263.975,-280.656 259.524,-274.002"/>
<polygon fill="#ace43f" stroke="#ace43f" points="272.881,-293.968 274.702,-304.782 275.662,-298.124 278.442,-302.28 278.442,-302.28 278.442,-302.28 275.662,-298.124 282.182,-299.778 272.881,-293.968 272.881,-293.968"/>
<polygon fill="#ace43f" stroke="#ace43f" points="259.455,-273.9 257.635,-263.086 256.675,-269.744 253.895,-265.588 253.895,-265.588 253.895,-265.588 256.675,-269.744 250.155,-268.091 259.455,-273.9 259.455,-273.9"/>
</g>
<!-- UserRole -->
<g id="node4" class="node"><title>UserRole</title>
<path fill="none" stroke="black" d="M251.825,-0.5C251.825,-0.5 475.55,-0.5 475.55,-0.5 481.55,-0.5 487.55,-6.5 487.55,-12.5 487.55,-12.5 487.55,-88.5 487.55,-88.5 487.55,-94.5 481.55,-100.5 475.55,-100.5 475.55,-100.5 251.825,-100.5 251.825,-100.5 245.825,-100.5 239.825,-94.5 239.825,-88.5 239.825,-88.5 239.825,-12.5 239.825,-12.5 239.825,-6.5 245.825,-0.5 251.825,-0.5"/>
<text text-anchor="middle" x="363.688" y="-85.3" font-family="Times,serif" font-size="14.00">UserRole</text>
<polyline fill="none" stroke="black" points="239.825,-78.5 487.55,-78.5 "/>
<text text-anchor="start" x="247.825" y="-63.3" font-family="Times,serif" font-size="14.00">id :integer</text>
<text text-anchor="start" x="247.825" y="-49.3" font-family="Times,serif" font-size="14.00">user_id :integer</text>
<text text-anchor="start" x="247.825" y="-35.3" font-family="Times,serif" font-size="14.00">role_id :integer</text>
<text text-anchor="start" x="247.825" y="-21.3" font-family="Times,serif" font-size="14.00">created_at :timestamp without time zone</text>
<text text-anchor="start" x="247.825" y="-7.3" font-family="Times,serif" font-size="14.00">updated_at :timestamp without time zone</text>
</g>
<!-- Role&#45;&gt;UserRole -->
<g id="edge1" class="edge"><title>Role&#45;&gt;UserRole</title>
<path fill="none" stroke="#88cf05" d="M333.961,-295C338.179,-285.6 342.015,-275.673 344.688,-266 358.837,-214.792 363.133,-154.339 364.154,-110.684"/>
<ellipse fill="none" stroke="#88cf05" cx="332.199" cy="-298.785" rx="4.00002" ry="4.00002"/>
<polygon fill="#88cf05" stroke="#88cf05" points="364.157,-110.52 368.839,-100.605 364.248,-105.521 364.34,-100.522 364.34,-100.522 364.34,-100.522 364.248,-105.521 359.84,-100.44 364.157,-110.52 364.157,-110.52"/>
</g>
<!-- User&#45;&gt;UserRole -->
<g id="edge4" class="edge"><title>User&#45;&gt;UserRole</title>
<path fill="none" stroke="#e18dc5" d="M282.016,-131.56C290.129,-123.607 298.329,-115.568 306.243,-107.811"/>
<ellipse fill="none" stroke="#e18dc5" cx="279.006" cy="-134.51" rx="4.00002" ry="4.00002"/>
<polygon fill="#e18dc5" stroke="#e18dc5" points="306.279,-107.776 316.57,-103.989 309.85,-104.276 313.42,-100.775 313.42,-100.775 313.42,-100.775 309.85,-104.276 310.27,-97.5619 306.279,-107.776 306.279,-107.776"/>
</g>
<!-- ActiveRecord::Base -->
<g id="node5" class="node"><title>ActiveRecord::Base</title>
<ellipse fill="none" stroke="black" cx="306.688" cy="-461.5" rx="81.1422" ry="18"/>
<text text-anchor="middle" x="306.688" y="-457.3" font-family="Times,serif" font-size="14.00">ActiveRecord::Base</text>
</g>
<!-- ActiveRecord::Base&#45;&gt;Role -->
<g id="edge3" class="edge"><title>ActiveRecord::Base&#45;&gt;Role</title>
<path fill="none" stroke="black" d="M306.688,-443.186C306.688,-428.735 306.688,-407.529 306.688,-388.656"/>
</g>
<!-- ActiveRecord::Base&#45;&gt;User -->
<g id="edge5" class="edge"><title>ActiveRecord::Base&#45;&gt;User</title>
<path fill="none" stroke="black" d="M269.145,-445.471C233.711,-430.431 184.448,-407.001 173.688,-389 151.478,-351.845 161.949,-303.879 177.47,-265.897"/>
</g>
<!-- ActiveRecord::Base&#45;&gt;UserRole -->
<g id="edge6" class="edge"><title>ActiveRecord::Base&#45;&gt;UserRole</title>
<path fill="none" stroke="black" d="M357.575,-447.332C387.127,-436.784 421.933,-418.702 439.688,-389 494.617,-297.107 436.207,-169.556 395.66,-100.555"/>
</g>
</g>
</svg>
