<?xml version="1.0" encoding="UTF-8" standalone="no"?>
<!DOCTYPE svg PUBLIC "-//W3C//DTD SVG 1.1//EN"
 "http://www.w3.org/Graphics/SVG/1.1/DTD/svg11.dtd">
<!-- Generated by graphviz version 2.38.0 (20140413.2041)
 -->
<!-- Title: models_diagram Pages: 1 -->
<svg width="396pt" height="297pt"
 viewBox="0.00 0.00 396.01 297.00" xmlns="http://www.w3.org/2000/svg" xmlns:xlink="http://www.w3.org/1999/xlink">
<g id="graph0" class="graph" transform="scale(1 1) rotate(0) translate(4 293)">
<title>models_diagram</title>
<polygon fill="none" stroke="none" points="-4,4 -4,-293 392.009,-293 392.009,4 -4,4"/>
<!-- _diagram_info -->
<g id="node1" class="node"><title>_diagram_info</title>
<text text-anchor="start" x="8" y="-274.6" font-family="Times,serif" font-size="13.00">Models diagram</text>
<text text-anchor="start" x="8" y="-261.6" font-family="Times,serif" font-size="13.00">Date: Jan 02 2016 &#45; 11:13</text>
<text text-anchor="start" x="8" y="-248.6" font-family="Times,serif" font-size="13.00">Migration version: 20151230160704</text>
<text text-anchor="start" x="8" y="-235.6" font-family="Times,serif" font-size="13.00">Generated by RailRoady 1.4.2</text>
<text text-anchor="start" x="8" y="-222.6" font-family="Times,serif" font-size="13.00">http://railroady.prestonlee.com</text>
</g>
<!-- Role -->
<g id="node2" class="node"><title>Role</title>
<ellipse fill="none" stroke="black" cx="306.688" cy="-162" rx="27" ry="18"/>
<text text-anchor="middle" x="306.688" y="-157.8" font-family="Times,serif" font-size="14.00">Role</text>
</g>
<!-- User -->
<g id="node3" class="node"><title>User</title>
<ellipse fill="none" stroke="black" cx="260.688" cy="-90" rx="27" ry="18"/>
<text text-anchor="middle" x="260.688" y="-85.8" font-family="Times,serif" font-size="14.00">User</text>
</g>
<!-- Role&#45;&gt;User -->
<g id="edge2" class="edge"><title>Role&#45;&gt;User</title>
<path fill="none" stroke="#fecb44" d="M290.596,-136.513C286.145,-129.739 281.313,-122.386 276.857,-115.605"/>
<polygon fill="#fecb44" stroke="#fecb44" points="290.758,-136.759 292.489,-147.587 293.504,-140.937 296.25,-145.116 296.25,-145.116 296.25,-145.116 293.504,-140.937 300.01,-142.645 290.758,-136.759 290.758,-136.759"/>
<polygon fill="#fecb44" stroke="#fecb44" points="276.576,-115.178 274.845,-104.35 273.83,-111 271.085,-106.821 271.085,-106.821 271.085,-106.821 273.83,-111 267.324,-109.293 276.576,-115.178 276.576,-115.178"/>
</g>
<!-- UserRole -->
<g id="node4" class="node"><title>UserRole</title>
<ellipse fill="none" stroke="black" cx="315.688" cy="-18" rx="43.5146" ry="18"/>
<text text-anchor="middle" x="315.688" y="-13.8" font-family="Times,serif" font-size="14.00">UserRole</text>
</g>
<!-- Role&#45;&gt;UserRole -->
<g id="edge1" class="edge"><title>Role&#45;&gt;UserRole</title>
<path fill="none" stroke="#6e01bc" d="M308.3,-135.558C309.892,-110.444 312.318,-72.164 313.952,-46.3932"/>
<ellipse fill="none" stroke="#6e01bc" cx="308.026" cy="-139.879" rx="4" ry="4"/>
<polygon fill="#6e01bc" stroke="#6e01bc" points="313.966,-46.1692 319.089,-36.4739 314.282,-41.1793 314.598,-36.1893 314.598,-36.1893 314.598,-36.1893 314.282,-41.1793 310.107,-35.9046 313.966,-46.1692 313.966,-46.1692"/>
</g>
<!-- User&#45;&gt;UserRole -->
<g id="edge4" class="edge"><title>User&#45;&gt;UserRole</title>
<path fill="none" stroke="#fd8d0c" d="M277.665,-67.3922C283.568,-59.8791 290.233,-51.3964 296.316,-43.6555"/>
<ellipse fill="none" stroke="#fd8d0c" cx="275.093" cy="-70.6658" rx="4.00002" ry="4.00002"/>
<polygon fill="#fd8d0c" stroke="#fd8d0c" points="296.445,-43.4911 306.161,-38.4081 299.534,-39.5595 302.623,-35.6278 302.623,-35.6278 302.623,-35.6278 299.534,-39.5595 299.085,-32.8476 296.445,-43.4911 296.445,-43.4911"/>
</g>
<!-- ActiveRecord::Base -->
<g id="node5" class="node"><title>ActiveRecord::Base</title>
<ellipse fill="none" stroke="black" cx="306.688" cy="-252.5" rx="81.1422" ry="18"/>
<text text-anchor="middle" x="306.688" y="-248.3" font-family="Times,serif" font-size="14.00">ActiveRecord::Base</text>
</g>
<!-- ActiveRecord::Base&#45;&gt;Role -->
<g id="edge3" class="edge"><title>ActiveRecord::Base&#45;&gt;Role</title>
<path fill="none" stroke="black" d="M306.688,-234.436C306.688,-218.765 306.688,-195.666 306.688,-180.011"/>
</g>
<!-- ActiveRecord::Base&#45;&gt;User -->
<g id="edge5" class="edge"><title>ActiveRecord::Base&#45;&gt;User</title>
<path fill="none" stroke="black" d="M296.004,-234.587C287.669,-220.532 276.553,-199.715 270.688,-180 263.461,-155.708 261.383,-126.269 260.827,-108.085"/>
</g>
<!-- ActiveRecord::Base&#45;&gt;UserRole -->
<g id="edge6" class="edge"><title>ActiveRecord::Base&#45;&gt;UserRole</title>
<path fill="none" stroke="black" d="M318.141,-234.462C326.797,-220.502 337.966,-199.877 342.688,-180 355.002,-128.16 334.668,-65.6317 322.997,-36.0711"/>
</g>
</g>
</svg>
